<?xml version="1.0" standalone="no"?><svg xmlns="http://www.w3.org/2000/svg" viewBox="0 0 1440 320"><path fill="#a2d9ff" fill-opacity="1" d="M0,96L40,85.3C80,75,160,53,240,74.7C320,96,400,160,480,186.7C560,213,640,203,720,186.7C800,171,880,149,960,138.7C1040,128,1120,128,1200,144C1280,160,1360,192,1400,208L1440,224L1440,320L1400,320C1360,320,1280,320,1200,320C1120,320,1040,320,960,320C880,320,800,320,720,320C640,320,560,320,480,320C400,320,320,320,240,320C160,320,80,320,40,320L0,320Z"></path></svg>